<svg width="19" height="19" viewBox="0 0 19 19" fill="none" xmlns="http://www.w3.org/2000/svg">
<path fill-rule="evenodd" clip-rule="evenodd" d="M1.45117 8.85388L1.78127 8.63563C2.27655 8.30829 2.60369 8.09088 2.83552 7.89654C3.05501 7.71246 3.1383 7.58937 3.18198 7.47414C3.22568 7.35887 3.24495 7.21131 3.20266 6.92766C3.15802 6.62813 3.05729 6.2481 2.90369 5.6742L2.76429 5.15336C2.03304 6.22375 1.56435 7.48823 1.45117 8.85388ZM3.74255 3.98685C3.75031 4.00714 3.75711 4.02803 3.76285 4.04948L4.12015 5.38449C4.26241 5.91597 4.38262 6.36505 4.43901 6.74338C4.46794 6.93748 4.48264 7.12736 4.47357 7.31548L6.55679 8.19338C6.60356 8.14613 6.65394 8.10163 6.70781 8.06046L8.23826 6.88998C8.32035 6.82715 8.4076 6.7742 8.49826 6.73113V4.47316C8.3246 4.41331 8.15751 4.33197 7.99168 4.23656C7.66035 4.0459 7.28656 3.76994 6.84427 3.44343L5.69589 2.59574C4.97281 2.95628 4.31434 3.42734 3.74255 3.98685ZM7.08226 2.06544L7.55868 2.41713C8.03643 2.76975 8.35301 3.00226 8.61518 3.15312C8.86343 3.29596 9.00735 3.33168 9.13001 3.333C9.25268 3.33433 9.39735 3.30174 9.6486 3.1643C9.91393 3.01915 10.2354 2.79354 10.7207 2.45134L11.2383 2.08621C10.5663 1.89434 9.85676 1.79163 9.12326 1.79163C8.41668 1.79163 7.73226 1.88694 7.08226 2.06544ZM12.6203 2.63095C12.5962 2.65465 12.5699 2.67672 12.5414 2.69682L11.4128 3.49284C10.9635 3.80971 10.5838 4.07752 10.2484 4.26096C10.0842 4.35078 9.9191 4.42713 9.74826 4.48291V6.73113C9.83885 6.7742 9.9261 6.82715 10.0082 6.88998L11.5387 8.06046C11.5934 8.10238 11.6447 8.14771 11.6921 8.19588L13.8261 7.3122C13.8173 7.12518 13.8321 6.93642 13.8608 6.74346C13.9172 6.36513 14.0374 5.91604 14.1797 5.38456L14.537 4.04955C14.5391 4.04167 14.5413 4.03385 14.5438 4.02613C13.9811 3.46753 13.3328 2.99531 12.6203 2.63095ZM15.5204 5.20991L15.3962 5.67428C15.2425 6.24818 15.1418 6.62821 15.0972 6.92773C15.0549 7.21139 15.0742 7.35894 15.1178 7.47422C15.1615 7.58945 15.2448 7.71253 15.4643 7.89654C15.6962 8.09096 16.0233 8.30838 16.5186 8.63571L16.7921 8.81654C16.6757 7.48914 16.2232 6.25836 15.5204 5.20991ZM18.0658 9.83496C18.0698 9.72379 18.0719 9.61213 18.0719 9.49996C18.0719 4.55309 14.0662 0.541626 9.12326 0.541626C4.18031 0.541626 0.174515 4.55309 0.174515 9.49996C0.174515 14.4468 4.18031 18.4583 9.12326 18.4583C13.8108 18.4583 17.6556 14.8505 18.0403 10.2586C18.0993 10.122 18.106 9.97204 18.0658 9.83496ZM16.7803 10.3071L15.8003 9.65938C15.3418 9.35629 14.9541 9.10004 14.6612 8.85438C14.5205 8.73654 14.3917 8.61313 14.2792 8.47754L12.1023 9.37896C12.0923 9.46963 12.0737 9.56013 12.0461 9.64946L11.445 11.597C11.4241 11.6648 11.3985 11.7303 11.3687 11.793L12.5921 13.2081C12.7792 13.1456 12.9749 13.1084 13.1791 13.085C13.5588 13.0416 14.0233 13.0416 14.5728 13.0416H15.9534C15.9567 13.0416 15.9598 13.0416 15.963 13.0417C16.3947 12.2076 16.6787 11.2845 16.7803 10.3071ZM15.1542 14.2916H14.6075C14.014 14.2916 13.6214 14.2925 13.321 14.3269C13.0367 14.3594 12.8996 14.4161 12.8 14.488C12.7003 14.56 12.6031 14.6724 12.4823 14.9324C12.3547 15.207 12.2296 15.5796 12.0419 16.1433L11.8534 16.7095C13.1612 16.2128 14.2988 15.3695 15.1542 14.2916ZM10.4053 17.1019L10.8668 15.7155C11.0407 15.1935 11.1875 14.7525 11.3487 14.4056C11.4212 14.2495 11.5011 14.1021 11.5947 13.9657L10.3993 12.5831C10.2876 12.6105 10.1713 12.625 10.0525 12.625H8.19393C8.08368 12.625 7.97568 12.6125 7.87143 12.5889L6.80771 13.9435C6.90792 14.0861 6.99258 14.241 7.06906 14.4056C7.23023 14.7525 7.37706 15.1935 7.55085 15.7155L8.02176 17.13C8.38151 17.1816 8.74926 17.2083 9.12326 17.2083C9.56001 17.2083 9.98835 17.1719 10.4053 17.1019ZM6.58796 16.7805L6.3758 16.1433C6.18813 15.5796 6.06305 15.207 5.93546 14.9324C5.81464 14.6724 5.71741 14.56 5.61772 14.488C5.51808 14.4161 5.38105 14.3594 5.09666 14.3269C4.79627 14.2925 4.40368 14.2916 3.81017 14.2916H3.09229C3.98993 15.4227 5.19826 16.2955 6.58796 16.7805ZM2.29541 13.0647C2.34911 13.0497 2.40575 13.0416 2.46426 13.0416H3.84487C4.39439 13.0416 4.85888 13.0416 5.23861 13.085C5.43422 13.1074 5.62203 13.1425 5.80194 13.2004L6.88896 11.816C6.85433 11.7463 6.82496 11.6731 6.80145 11.597L6.20033 9.64946C6.17244 9.55913 6.15373 9.46754 6.14381 9.37579L4.01844 8.48013C3.90641 8.61463 3.77836 8.73721 3.63868 8.85429C3.34571 9.09996 2.95811 9.35621 2.49949 9.65929L1.46971 10.34C1.57515 11.3143 1.86188 12.234 2.29541 13.0647ZM9.12326 7.84029C9.07868 7.84029 9.03485 7.85438 8.9976 7.88288L7.46718 9.05338C7.43206 9.08021 7.40735 9.11654 7.39473 9.15746C7.38252 9.19696 7.38201 9.23963 7.39473 9.28079L7.99585 11.2283C8.00868 11.27 8.03343 11.305 8.06593 11.3305C8.10193 11.359 8.14635 11.375 8.19393 11.375H10.0525C10.1001 11.375 10.1445 11.359 10.1805 11.3305C10.213 11.305 10.2378 11.27 10.2506 11.2283L10.8517 9.28079C10.8644 9.23963 10.8639 9.19696 10.8518 9.15746C10.8391 9.11654 10.8144 9.08021 10.7793 9.05338L9.24885 7.88288C9.2116 7.85438 9.16776 7.84029 9.12326 7.84029Z" fill="#282828"/>
</svg>
