<svg width="24" height="24" viewBox="0 0 24 24" fill="none" xmlns="http://www.w3.org/2000/svg">
<path d="M9.08016 12.71L14.5043 18.36C14.5934 18.4537 14.6994 18.5281 14.8162 18.5789C14.933 18.6297 15.0582 18.6558 15.1847 18.6558C15.3113 18.6558 15.4365 18.6297 15.5533 18.5789C15.6701 18.5281 15.7761 18.4537 15.8652 18.36C16.0436 18.1726 16.1438 17.9192 16.1438 17.655C16.1438 17.3908 16.0436 17.1374 15.8652 16.95L11.1214 11.95L15.8652 6.99999C16.0436 6.81263 16.1438 6.55918 16.1438 6.29499C16.1438 6.03081 16.0436 5.77736 15.8652 5.58999C15.7764 5.49551 15.6706 5.42034 15.5538 5.36884C15.437 5.31734 15.3115 5.29054 15.1847 5.29C15.0579 5.29054 14.9325 5.31734 14.8157 5.36884C14.6989 5.42034 14.5931 5.49551 14.5043 5.58999L9.08016 11.24C8.98288 11.3336 8.90525 11.4473 8.85215 11.5738C8.79905 11.7003 8.77164 11.8369 8.77164 11.975C8.77164 12.1131 8.79905 12.2497 8.85215 12.3762C8.90525 12.5027 8.98288 12.6164 9.08016 12.71Z" fill="white"/>
</svg>
