<svg width="18" height="20" viewBox="0 0 18 20" fill="none" xmlns="http://www.w3.org/2000/svg">
<path d="M17.1927 14.62C17.1927 15.47 16.5027 16.16 15.6527 16.16H2.29266C1.44266 16.16 0.752655 15.47 0.752655 14.62C0.752655 13.77 1.44266 13.08 2.29266 13.08H2.80264V7.94002C2.80264 4.54002 5.56266 1.77002 8.97266 1.77002C10.6727 1.77002 12.2126 2.46002 13.3326 3.58002C14.4526 4.69002 15.1427 6.23002 15.1427 7.94002V13.08H15.6527C16.5027 13.08 17.1927 13.77 17.1927 14.62Z" stroke="white" stroke-width="1.5" stroke-linecap="round" stroke-linejoin="round"/>
<path d="M8.97266 1.78V0.75" stroke="white" stroke-width="1.5" stroke-linecap="round" stroke-linejoin="round"/>
<path d="M12.0508 16.17C12.0508 17.88 10.6712 19.25 8.97171 19.25C7.27223 19.25 5.89267 17.87 5.89267 16.17H12.0508Z" stroke="white" stroke-width="1.5" stroke-linecap="round" stroke-linejoin="round"/>
</svg>
